<svg version="1.1" xmlns="http://www.w3.org/2000/svg" xmlns:xlink="http://www.w3.org/1999/xlink" x="0px" y="0px" viewBox="0 0 256 256" enable-background="new 0 0 256 256" xml:space="preserve">
<g><g><path fill="white" d="M128,10C62.9,10,10,62.9,10,128c0,65.1,52.9,118,118,118c65.1,0,118-52.9,118-118C246,62.9,193.1,10,128,10z M128,238.4c-60.9,0-110.4-49.5-110.4-110.4C17.6,67.1,67.1,17.6,128,17.6c60.9,0,110.4,49.5,110.4,110.4C238.4,188.9,188.9,238.4,128,238.4z"/><path fill="white" d="M184,72c-1.5-1.5-3.9-1.5-5.4,0L128,122.6L77.4,72c-1.5-1.5-3.9-1.5-5.4,0c-1.5,1.5-1.5,3.9,0,5.4l50.6,50.6L72,178.6c-1.5,1.5-1.5,3.9,0,5.4c0.7,0.7,1.7,1.1,2.7,1.1s2-0.4,2.7-1.1l50.6-50.6l50.6,50.6c0.7,0.7,1.7,1.1,2.7,1.1c1,0,1.9-0.4,2.7-1.1c1.5-1.5,1.5-3.9,0-5.4L133.4,128L184,77.4C185.5,75.9,185.5,73.5,184,72z"/></g></g>
</svg>